
<svg xmlns="http://www.w3.org/2000/svg" width="36" height="36" viewBox="0 0 36 36">
  <circle cx="18" cy="18" r="18" fill="#4ADE80" opacity="0.9"/>
  <path d="M9 13.5C9 11.0147 11.0147 9 13.5 9C15.9853 9 18 11.0147 18 13.5C18 15.9853 15.9853 18 13.5 18" stroke="white" stroke-width="2" stroke-linecap="round"/>
  <path d="M18 22.5C18 20.0147 20.0147 18 22.5 18C24.9853 18 27 20.0147 27 22.5C27 24.9853 24.9853 27 22.5 27" stroke="white" stroke-width="2" stroke-linecap="round"/>
  <path d="M13.5 18C13.5 20.4853 11.4853 22.5 9 22.5" stroke="white" stroke-width="2" stroke-linecap="round"/>
  <path d="M22.5 27C22.5 27 21 27 18 27C15 27 13.5 27 13.5 27" stroke="white" stroke-width="2" stroke-linecap="round"/>
  <path d="M9 22.5V27" stroke="white" stroke-width="2" stroke-linecap="round"/>
  <path d="M27 22.5V27" stroke="white" stroke-width="2" stroke-linecap="round"/>
</svg>
